<svg class="MuiSvgIcon-root MuiSvgIcon-fontSizeSmall" focusable="false" viewBox="0 0 24 24" color="#999" aria-hidden="true"><svg aria-hidden="true" focusable="false" data-prefix="fas" data-icon="return" role="img" viewBox="0 0 512 512" xmlns="http://www.w3.org/2000/svg" fill="#fff"><path d="M413.7 489.9c-4.3-4.4-4.5-11.5-.4-16.1 75.7-83.7 73.7-213.4-7.6-294.7-58.6-58.6-142.7-76.1-216.5-52.5l48.8 48.8c4.7 4.7 4.7 12.3 0 17l-7.1 7.1c-4.7 4.7-12.3 4.7-17 0l-81.1-81.1c-4.7-4.7-4.7-12.3 0-17l85.1-87.1c4.7-4.7 12.3-4.7 17 0l7.1 7.1c4.7 4.7 4.7 12.3 0 17l-50.2 52.2c82.6-21.5 174.1.2 238.6 65.2 93 93.6 95.7 244.1 8.2 341-4.8 5.3-12.9 5.5-17.9.4l-7-7.3zM48.7 318h17.7c8.4 0 14.6-2.1 18.7-6.3 4.1-4.2 6.1-9.8 6.1-16.7 0-6.7-2-12-6-15.7-4-3.7-9.5-5.6-16.6-5.6-6.3 0-11.7 1.7-15.9 5.2-4.3 3.5-6.4 8-6.4 13.6H13c0-8.7 2.4-16.5 7.1-23.5 4.7-6.9 11.3-12.3 19.7-16.2 8.4-3.9 17.8-5.8 27.9-5.8 17.7 0 31.5 4.2 41.5 12.7s15 20.1 15 34.9c0 7.6-2.3 14.7-7 21.1-4.7 6.4-10.8 11.4-18.4 14.8 9.4 3.4 16.4 8.4 21 15.1 4.6 6.7 6.9 14.7 6.9 23.9 0 14.8-5.4 26.7-16.2 35.7-10.8 8.9-25.1 13.4-43 13.4-16.7 0-30.3-4.4-40.9-13.2-10.6-8.8-15.9-20.4-15.9-34.9h33.1c0 6.3 2.4 11.4 7.1 15.4 4.7 4 10.5 6 17.4 6 7.9 0 14.1-2.1 18.5-6.3 4.5-4.2 6.7-9.7 6.7-16.6 0-16.7-9.2-25-27.5-25H48.7v-26z"></path><path d="M239.6 247.4v27.3h-3.2c-15 .2-27.1 4.1-36.2 11.7-9.1 7.6-14.6 18.1-16.5 31.5 8.9-9 20.1-13.5 33.6-13.5 14.5 0 26.1 5.2 34.6 15.6 8.6 10.4 12.8 24.1 12.8 41.1 0 10.9-2.4 20.7-7.1 29.5-4.7 8.8-11.4 15.6-20 20.5s-18.3 7.3-29.2 7.3c-17.6 0-31.8-6.1-42.6-18.4-10.8-12.2-16.2-28.6-16.2-49v-11.9c0-18.1 3.4-34.1 10.3-48 6.8-13.9 16.7-24.6 29.5-32.2 12.8-7.6 27.7-11.5 44.6-11.5h5.6zm-32.3 83.8c-5.4 0-10.2 1.4-14.6 4.2s-7.6 6.5-9.6 11v10.1c0 11.1 2.2 19.7 6.5 25.9 4.4 6.2 10.5 9.3 18.4 9.3 7.1 0 12.9-2.8 17.3-8.4 4.4-5.6 6.6-12.9 6.6-21.8 0-9.1-2.2-16.4-6.7-22-4.4-5.6-10.4-8.3-17.9-8.3zM289.4 334l9.6-84.9h93.6v27.6h-66.4l-4.1 35.9c7.9-4.2 16.2-6.3 25.1-6.3 15.9 0 28.4 4.9 37.4 14.8s13.5 23.7 13.5 41.4c0 10.8-2.3 20.4-6.8 29-4.5 8.5-11.1 15.1-19.6 19.8-8.5 4.7-18.5 7.1-30 7.1-10.1 0-19.5-2-28.1-6.1-8.6-4.1-15.5-9.8-20.5-17.3-5-7.4-7.7-15.9-8-25.3H318c.7 7 3.1 12.4 7.3 16.2 4.2 3.9 9.6 5.8 16.3 5.8 7.5 0 13.3-2.7 17.3-8.1 4.1-5.4 6.1-13 6.1-22.9 0-9.5-2.3-16.7-7-21.8-4.7-5-11.3-7.6-19.8-7.6-7.9 0-14.3 2.1-19.2 6.2l-3.2 3-26.4-6.5z"></path></svg></svg>